<svg width="128" height="128" viewBox="0 0 128 128" fill="none" xmlns="http://www.w3.org/2000/svg">
<rect x="1" y="1" width="126" height="126" fill="#120F24" stroke="#6A9DEA" stroke-width="2"/>
<path d="M59.6956 92.8C45.2423 92.8 38.0156 85.84 38.0156 71.92V62C38.0156 57.7333 38.9756 53.92 40.8956 50.56C42.8156 47.2 45.589 44.56 49.2156 42.64C52.8423 40.6667 57.2156 39.68 62.3356 39.68C65.1623 39.68 67.6423 39.8667 69.7756 40.24C71.9623 40.56 74.0423 41.0933 76.0156 41.84V53.52C74.2023 52.72 72.2823 52.16 70.2556 51.84C68.2823 51.4667 66.1223 51.28 63.7756 51.28C59.9356 51.28 57.029 52.0267 55.0556 53.52C53.0823 54.96 52.0956 56.7467 52.0956 58.88V60.32C53.4823 59.4133 55.189 58.72 57.2156 58.24C59.2423 57.76 61.1356 57.52 62.8956 57.52C69.2423 57.52 73.8556 59.0133 76.7356 62C79.669 64.9333 81.1356 69.1733 81.1356 74.72C81.1356 78.1867 80.4156 81.3067 78.9756 84.08C77.5356 86.8 75.2423 88.9333 72.0956 90.48C68.949 92.0267 64.8156 92.8 59.6956 92.8ZM59.7756 82.16C62.4423 82.16 64.4156 81.5733 65.6956 80.4C67.029 79.1733 67.6956 77.4667 67.6956 75.28C67.6956 72.9867 67.109 71.2533 65.9356 70.08C64.8156 68.8533 62.8156 68.24 59.9356 68.24C58.6023 68.24 57.269 68.4533 55.9356 68.88C54.6023 69.3067 53.3223 69.8933 52.0956 70.64V74.4C52.0956 77.0667 52.7356 79.04 54.0156 80.32C55.2956 81.5467 57.2156 82.16 59.7756 82.16ZM85.125 92V81.2H96.965V92H85.125Z" fill="#6A9DEA"/>
</svg>
