<svg width="128" height="128" viewBox="0 0 128 128" fill="none" xmlns="http://www.w3.org/2000/svg">
<rect x="1" y="1" width="126" height="126" fill="#6A9DEA" stroke="#120F24" stroke-width="2"/>
<path d="M61.5034 92.8C60.0101 92.8 58.2501 92.6933 56.2234 92.48C54.2501 92.32 52.2768 92.0533 50.3034 91.68C48.3834 91.2533 46.7034 90.72 45.2634 90.08V78C46.5434 78.5867 48.0101 79.0933 49.6634 79.52C51.3701 79.9467 53.0768 80.2667 54.7834 80.48C56.4901 80.6933 57.9301 80.8 59.1034 80.8C62.0368 80.8 64.1701 80.3467 65.5034 79.44C66.8901 78.5333 67.5834 77.0933 67.5834 75.12C67.5834 73.2533 67.1034 71.92 66.1434 71.12C65.1834 70.2667 63.3701 69.84 60.7034 69.84H45.0234V62.96L46.3834 40.48H79.7434L78.7034 52H59.2634L58.7834 59.36H64.6234C70.8634 59.36 75.4768 60.7467 78.4634 63.52C81.4501 66.2933 82.9434 70.3467 82.9434 75.68C82.9434 80.8 81.1568 84.9333 77.5834 88.08C74.0634 91.2267 68.7034 92.8 61.5034 92.8Z" fill="#120F24"/>
</svg>
