<svg width="128" height="128" viewBox="0 0 128 128" fill="none" xmlns="http://www.w3.org/2000/svg">
<rect x="1" y="1" width="126" height="126" fill="#EA6A6A" stroke="#120F24" stroke-width="2"/>
<path d="M62.0128 92.8C60.5195 92.8 58.7061 92.6667 56.5728 92.4C54.4395 92.1867 52.3328 91.8667 50.2528 91.44C48.2261 91.0133 46.5195 90.5333 45.1328 90V78C47.4261 79.0133 49.8795 79.76 52.4928 80.24C55.1061 80.6667 57.4795 80.88 59.6128 80.88C62.5995 80.88 64.8128 80.5067 66.2528 79.76C67.7461 79.0133 68.4928 77.6267 68.4928 75.6C68.4928 72.6133 66.1461 71.12 61.4528 71.12H52.7328L53.6928 61.04H60.9728C63.3195 61.04 64.9995 60.6667 66.0128 59.92C67.0261 59.1733 67.5328 57.9733 67.5328 56.32C67.5328 54.7733 66.8661 53.6 65.5328 52.8C64.2528 52 62.1461 51.6 59.2128 51.6C56.8661 51.6 54.4928 51.8667 52.0928 52.4C49.6928 52.9333 47.6395 53.6267 45.9328 54.48V42.56C47.9061 41.76 50.3595 41.0933 53.2928 40.56C56.2261 39.9733 59.1595 39.68 62.0928 39.68C66.5728 39.68 70.3595 40.32 73.4528 41.6C76.5461 42.88 78.8928 44.64 80.4928 46.88C82.0928 49.12 82.8928 51.68 82.8928 54.56C82.8928 57.0133 82.4128 59.2533 81.4528 61.28C80.5461 63.3067 79.1861 64.9067 77.3728 66.08C81.6928 67.8933 83.8528 71.4933 83.8528 76.88C83.8528 80.56 82.8928 83.5733 80.9728 85.92C79.1061 88.2667 76.5195 90 73.2128 91.12C69.9595 92.24 66.2261 92.8 62.0128 92.8Z" fill="#120F24"/>
</svg>
