<svg width="128" height="128" viewBox="0 0 128 128" fill="none" xmlns="http://www.w3.org/2000/svg">
<rect x="1" y="1" width="126" height="126" fill="#EA6A6A" stroke="#120F24" stroke-width="2"/>
<path d="M45.1016 92V85.12C46.5949 82.2933 48.4082 79.76 50.5416 77.52C52.6749 75.28 55.0482 72.9867 57.6616 70.64C59.8482 68.6667 61.6082 67.04 62.9416 65.76C64.3282 64.48 65.3416 63.28 65.9816 62.16C66.6749 60.9867 67.0216 59.6533 67.0216 58.16C67.0216 54.3733 64.5416 52.48 59.5816 52.48C57.2882 52.48 55.0482 52.7467 52.8616 53.28C50.7282 53.8133 48.7016 54.48 46.7816 55.28V42.48C48.9682 41.6267 51.5282 40.96 54.4616 40.48C57.3949 39.9467 60.3549 39.68 63.3416 39.68C69.7416 39.68 74.5149 41.2 77.6616 44.24C80.8082 47.2267 82.3816 51.2533 82.3816 56.32C82.3816 58.72 82.0882 60.8 81.5016 62.56C80.9682 64.2667 80.1149 65.84 78.9416 67.28C77.7682 68.72 76.2482 70.2667 74.3816 71.92C72.7282 73.36 71.1016 74.8 69.5016 76.24C67.9016 77.68 66.6216 79.0933 65.6616 80.48H82.8616V92H45.1016Z" fill="#120F24"/>
</svg>
